<?xml version="1.0" encoding="UTF-8" standalone="no"?>
<svg
   xmlns:dc="http://purl.org/dc/elements/1.1/"
   xmlns:cc="http://creativecommons.org/ns#"
   xmlns:rdf="http://www.w3.org/1999/02/22-rdf-syntax-ns#"
   xmlns:svg="http://www.w3.org/2000/svg"
   xmlns="http://www.w3.org/2000/svg"
   xmlns:xlink="http://www.w3.org/1999/xlink"
   id="svg1170"
   version="1.1"
   width="436"
   viewBox="0 0 86.518752 87.343503"
   height="440.15622">
  <metadata
     id="metadata1176">
    <rdf:RDF>
      <cc:Work
         rdf:about="">
        <dc:format>image/svg+xml</dc:format>
        <dc:type
           rdf:resource="http://purl.org/dc/dcmitype/StillImage" />
        <dc:title></dc:title>
      </cc:Work>
    </rdf:RDF>
  </metadata>
  <defs
     id="defs1174" />
  <marker
     refY="0"
     refX="0"
     overflow="visible"
     orient="auto"
     id="a">
    <path
       id="path999"
       transform="scale(-.4)"
       stroke-width="1pt"
       stroke="#fff"
       fill-rule="evenodd"
       fill="#fff"
       d="m5.77 0-8.65 5v-10z" />
  </marker>
  <use
     height="100%"
     transform="translate(11.162109)"
     width="100%"
     xlink:href="#g"
     id="use1002"
     x="0"
     y="0" />
  <g
     stroke-width="1.33333"
     transform="matrix(0.33600003,0,0,0.33600003,0.523874,39.272253)"
     id="g1016">
    <rect
       fill="#1887b0"
       height="21.166666"
       rx="2.822226"
       width="33.072914"
       x="18.520834"
       y="95.916664"
       id="rect1004" />
    <rect
       fill="#37474f"
       height="18.520834"
       rx="1.0255491"
       ry="1.927834"
       transform="matrix(1.7692307,0,0,0.94117638,-10.58333,84.161156)"
       width="17.197918"
       x="17.197916"
       y="13.895833"
       id="rect1006" />
    <g
       fill="#ededed"
       stroke-width="0.352778"
       id="g1014">
      <path
         d="m 23.547918,101.02155 h 6.348894 v 1.13472 h -2.607087 v 6.80278 h -1.13472 v -6.80278 h -2.607087 z"
         id="path1008" />
      <path
         d="m 31.145111,106.38518 q 0,-0.22695 0.08303,-0.42068 0.08856,-0.19927 0.232479,-0.34872 0.149451,-0.14945 0.348719,-0.23248 0.199267,-0.0886 0.420676,-0.0886 h 2.81189 v -1.14025 h -3.559144 v -1.09044 h 3.559144 q 0.226944,0 0.426212,0.0886 0.199268,0.083 0.343183,0.23248 0.149451,0.14392 0.232479,0.34318 0.08856,0.19927 0.08856,0.42622 v 4.80456 h -1.090438 v -0.99634 q -0.0166,0.20481 -0.110704,0.38747 -0.0941,0.18266 -0.24355,0.32104 -0.143915,0.13285 -0.332113,0.21034 -0.188197,0.0775 -0.398535,0.0775 h -1.726988 q -0.221409,0 -0.420676,-0.083 -0.199268,-0.0886 -0.348719,-0.23247 -0.143916,-0.14946 -0.232479,-0.34872 -0.08303,-0.19927 -0.08303,-0.42621 z m 1.084902,1.48344 h 2.81189 v -1.48344 h -2.81189 z"
         id="path1010" />
      <path
         d="m 43.162066,107.86862 q 0,0.22694 -0.08856,0.42621 -0.08303,0.19926 -0.232479,0.34872 -0.143915,0.14391 -0.343183,0.23247 -0.199268,0.083 -0.426212,0.083 h -3.038834 q -0.221408,0 -0.420676,-0.083 -0.199268,-0.0886 -0.348719,-0.23247 -0.143915,-0.14946 -0.232479,-0.34872 -0.08303,-0.19927 -0.08303,-0.42621 v -7.07401 h 1.084902 v 3.31006 q 0.01107,-0.21588 0.09963,-0.40407 0.08856,-0.19374 0.232479,-0.33212 0.149451,-0.14391 0.343184,-0.2214 0.193732,-0.083 0.415141,-0.083 h 1.948396 q 0.226944,0 0.426212,0.0886 0.199268,0.083 0.343183,0.23248 0.149451,0.14392 0.232479,0.34318 0.08856,0.19927 0.08856,0.42622 z m -4.129272,-3.71413 v 3.71413 h 3.038834 v -3.71413 z"
         id="path1012" />
    </g>
  </g>
  <g
     stroke-width="1.33333"
     transform="matrix(0.33749992,0,0,0.33749992,-18.305854,47.827891)"
     id="g1036">
    <rect
       fill="#1887b0"
       height="21.166666"
       rx="2.822226"
       width="52.916664"
       x="54.239594"
       y="95.916664"
       id="rect1018" />
    <rect
       fill="#37474f"
       height="18.520834"
       rx="0.620727"
       ry="1.927834"
       transform="matrix(2.9230768,0,0,0.94117638,5.291671,84.161156)"
       width="17.197918"
       x="17.197916"
       y="13.895833"
       id="rect1020" />
    <g
       fill="#ededed"
       stroke-width="0.352778"
       id="g1032">
      <path
         d="m 59.9475,101.02155 h 5.784301 v 1.13472 h -4.649582 v 2.26944 h 3.96875 v 1.13472 h -3.96875 v 2.2639 h 4.649582 v 1.13472 H 59.9475 Z"
         id="path1022" />
      <path
         d="m 72.534582,108.95905 h -1.090438 v -4.80456 H 68.40531 v 4.80456 h -1.084902 v -5.895 h 1.084902 v 1.04062 q 0.01107,-0.21588 0.09963,-0.40407 0.08856,-0.19374 0.232479,-0.33212 0.149451,-0.14391 0.343184,-0.2214 0.193732,-0.083 0.415141,-0.083 h 1.948396 q 0.226944,0 0.426212,0.0886 0.199268,0.083 0.343183,0.23248 0.149451,0.14392 0.232479,0.34318 0.08856,0.19927 0.08856,0.42622 z"
         id="path1024" />
      <path
         d="m 74.00695,103.06405 h 1.439156 v -1.81555 h 1.090438 v 1.81555 h 1.937326 v 1.09044 h -1.937326 v 3.71413 h 1.937326 v 1.09043 h -1.937326 q -0.221409,0 -0.420676,-0.083 -0.199268,-0.0886 -0.348719,-0.23247 -0.149451,-0.14946 -0.238014,-0.34872 -0.08303,-0.19927 -0.08303,-0.42621 v -3.71413 H 74.00695 Z"
         id="path1026" />
      <path
         d="m 85.276651,106.56784 h -3.902328 v 1.30078 h 3.902328 v 1.09043 h -3.902328 q -0.221409,0 -0.420676,-0.083 -0.199268,-0.0886 -0.348719,-0.23247 -0.143916,-0.14946 -0.232479,-0.34872 -0.08303,-0.19927 -0.08303,-0.42621 v -3.71413 q 0,-0.22695 0.08303,-0.42622 0.08856,-0.19926 0.232479,-0.34318 0.149451,-0.14945 0.348719,-0.23248 0.199267,-0.0886 0.420676,-0.0886 h 2.81189 q 0.226944,0 0.426212,0.0886 0.199268,0.083 0.343183,0.23248 0.149451,0.14392 0.232479,0.34318 0.08856,0.19927 0.08856,0.42622 z m -3.902328,-2.41335 v 1.32291 h 2.81189 v -1.32291 z"
         id="path1028" />
      <path
         d="m 88.177103,104.15449 v 4.80456 h -1.084902 v -5.895 h 1.084902 v 1.04062 q 0.01107,-0.21588 0.09963,-0.40407 0.08856,-0.19374 0.232479,-0.33212 0.149451,-0.14391 0.343184,-0.2214 0.193732,-0.083 0.415141,-0.083 h 1.15686 q 0.226944,0 0.420677,0.0886 0.199267,0.083 0.348718,0.23248 0.149451,0.14392 0.232479,0.34318 0.08856,0.19927 0.08856,0.42622 v 0.99633 h -1.090438 v -0.99633 z"
         id="path1030" />
    </g>
    <path
       d="m 95.75,107.30832 h 6.11458 v -5.04166"
       fill="none"
       marker-start="url(#a)"
       stroke="#ffffff"
       stroke-width="1.33333"
       id="path1034" />
  </g>
  <text
     style="font-size:3.17499999999999982px;font-family:sans-serif;letter-spacing:0;word-spacing:0;fill:#000000;stroke-width:0.211667;fill-opacity:1;"
     x="20.08967"
     y="75.965759"
     id="text1040"><tspan
       style="fill:#000000;fill-opacity:1;"
       fill="#ffffff"
       font-family="sans-serif"
       font-size="3.175px"
       stroke-width="0.211667"
       x="20.08967"
       y="75.965759"
       id="tspan1038">show scoreboard</tspan></text>
  <text
     style="font-size:3.17499999999999982px;font-family:sans-serif;letter-spacing:0;word-spacing:0;fill:#000000;stroke-width:0.211667;fill-opacity:1;"
     x="20.08967"
     y="84.697006"
     id="text1044"><tspan
       style="fill:#000000;fill-opacity:1;"
       fill="#ffffff"
       font-family="sans-serif"
       font-size="3.175px"
       stroke-width="0.211667"
       x="20.08967"
       y="84.697006"
       id="tspan1042">chat</tspan></text>
  <use
     height="100%"
     stroke-width="1.33333"
     transform="translate(0,-13.49375)"
     width="100%"
     xlink:href="#b"
     id="use1046"
     x="0"
     y="0" />
  <use
     height="100%"
     stroke-width="1.33333"
     transform="translate(25.400001)"
     width="100%"
     xlink:href="#c"
     id="use1048"
     x="0"
     y="0" />
  <g
     id="b"
     stroke-width="1.33333"
     transform="matrix(0.6,0,0,0.6,50.799997,2.012256)">
    <rect
       fill="#1ed9ce"
       height="21.166666"
       rx="3.1750031"
       width="19.84375"
       x="18.520834"
       y="32.416664"
       id="rect1050" />
    <rect
       fill="#37474f"
       height="18.272789"
       rx="1.814432"
       ry="1.927834"
       transform="matrix(1,0,0,0.94117638,2.645832,20.58334)"
       width="17.197918"
       x="17.197916"
       y="13.978506"
       id="rect1052" />
  </g>
  <g
     id="c"
     stroke-width="1.33333"
     transform="matrix(0.6,0,0,0.6,38.1,2.012256)">
    <rect
       fill="#d9ca1e"
       height="21.166666"
       rx="3.1750031"
       width="19.84375"
       x="18.520834"
       y="32.416664"
       id="rect1055" />
    <rect
       fill="#37474f"
       height="18.272789"
       rx="1.814432"
       ry="1.927834"
       transform="matrix(1,0,0,0.94117638,2.645832,20.58334)"
       width="17.197918"
       x="17.197916"
       y="13.978506"
       id="rect1057" />
  </g>
  <use
     height="100%"
     stroke-width="1.33333"
     transform="translate(30.95625,13.493752)"
     width="100%"
     xlink:href="#d"
     id="use1060"
     x="0"
     y="0" />
  <use
     height="100%"
     stroke-width="1.33333"
     transform="translate(25.400001)"
     width="100%"
     xlink:href="#d"
     id="use1062"
     x="0"
     y="0" />
  <use
     height="100%"
     stroke-width="1.33333"
     transform="translate(12.7)"
     width="100%"
     xlink:href="#d"
     id="use1064"
     x="0"
     y="0" />
  <g
     id="d"
     stroke-width="1.33333"
     transform="matrix(0.6,0,0,0.6,-11.1125,-11.481496)">
    <rect
       fill="#d94a1e"
       height="21.166666"
       rx="3.1750031"
       width="19.84375"
       x="18.520834"
       y="32.416664"
       id="rect1066" />
    <rect
       fill="#37474f"
       height="18.272789"
       rx="1.814432"
       ry="1.927834"
       transform="matrix(1,0,0,0.94117638,2.645832,20.58334)"
       width="17.197918"
       x="17.197916"
       y="13.97851"
       id="rect1068" />
  </g>
  <path
     style="stroke-width:0.6"
     d="m 4.8986668,10.349756 1.836585,4.7625 H 6.0544198 L 5.6326366,14.016283 H 3.4838656 L 3.0620818,15.112256 H 2.3812504 l 1.836585,-4.7625 z m -1.155753,2.985696 H 5.3702674 L 4.5599116,11.236498 Z"
     fill="#ededed"
     id="path1071" />
  <path
     style="stroke-width:0.6"
     d="m 15.828504,13.073083 q -0.139488,0 -0.26569,-0.05314 -0.122882,-0.05646 -0.215874,-0.14613 -0.09299,-0.09299 -0.14613,-0.215873 -0.05314,-0.126203 -0.05314,-0.26569 v -1.36166 q 0,-0.139487 0.05314,-0.262369 0.05314,-0.126203 0.14613,-0.215873 0.09299,-0.09299 0.215874,-0.14613 0.126202,-0.05646 0.26569,-0.05646 h 2.311506 q 0.139488,0 0.26237,0.05646 0.126202,0.05314 0.219194,0.14613 0.09299,0.08967 0.14613,0.215873 0.05314,0.122882 0.05314,0.262369 v 0.614409 H 18.140009 V 11.03059 h -2.311507 v 1.361664 h 2.311507 q 0.139487,0 0.262369,0.05314 0.126203,0.05314 0.219194,0.14613 0.09299,0.09299 0.14613,0.219194 0.05314,0.122882 0.05314,0.262369 v 1.358342 q 0,0.139488 -0.05314,0.265691 -0.05314,0.122882 -0.14613,0.215873 -0.09299,0.09299 -0.219194,0.14613 -0.122882,0.05314 -0.262369,0.05314 H 15.76208 q -0.139488,0 -0.265691,-0.05314 -0.122881,-0.05314 -0.215873,-0.14613 -0.09299,-0.09299 -0.14613,-0.215873 -0.05314,-0.126203 -0.05314,-0.265691 v -0.611088 h 0.680831 v 0.611087 h 2.377929 v -1.358341 z"
     fill="#ededed"
     id="path1073" />
  <path
     style="stroke-width:0.6"
     d="m 30.202353,14.431424 q 0.474921,0 0.730649,-0.255726 0.255727,-0.255727 0.255727,-0.730649 v -1.428086 q 0,-0.232479 -0.06642,-0.415141 -0.06642,-0.182662 -0.195946,-0.308865 -0.126204,-0.129524 -0.308866,-0.195947 -0.182662,-0.06642 -0.415141,-0.06642 h -1.740272 v 3.400836 z m -2.421103,0.680832 v -4.7625 h 2.421103 q 0.38193,0 0.687474,0.119561 0.308865,0.116239 0.524738,0.335434 0.219195,0.215873 0.335434,0.524738 0.119561,0.308865 0.119561,0.687474 v 1.428086 q 0,0.378609 -0.119561,0.687474 -0.116239,0.308865 -0.335434,0.528059 -0.215873,0.215874 -0.524738,0.335435 -0.305544,0.116239 -0.687474,0.116239 z"
     fill="#ededed"
     id="path1075" />
  <path
     style="stroke-width:0.6"
     d="m 33.337498,24.524335 q 0,-0.139488 0.05314,-0.26237 0.05314,-0.126202 0.14613,-0.215873 0.09299,-0.09299 0.215873,-0.14613 0.126203,-0.05646 0.265691,-0.05646 h 2.583839 q 0.139487,0 0.262369,0.05646 0.126203,0.05314 0.219195,0.14613 0.09299,0.08967 0.146129,0.215873 0.05314,0.122882 0.05314,0.26237 v 0.614409 h -0.680831 v -0.614409 h -2.58384 v 3.400837 h 2.58384 v -0.611088 h 0.680831 v 0.611088 q 0,0.139487 -0.05314,0.26569 -0.05314,0.122882 -0.146129,0.215873 -0.09299,0.09299 -0.219195,0.14613 -0.122882,0.05314 -0.262369,0.05314 h -2.583839 q -0.139488,0 -0.265691,-0.05314 -0.122881,-0.05314 -0.215873,-0.14613 -0.09299,-0.09299 -0.14613,-0.215873 -0.05314,-0.126203 -0.05314,-0.26569 z"
     fill="#ededed"
     id="path1077" />
  <text
     style="font-size:3.17499999999999982px;font-family:sans-serif;letter-spacing:0;word-spacing:0;fill:#000000;stroke-width:0.211667;fill-opacity:1;"
     x="34.44875"
     y="2.4122562"
     id="text1081"><tspan
       style="fill:#000000;fill-opacity:1;"
       fill="#ffffff"
       font-family="sans-serif"
       font-size="3.175px"
       stroke-width="0.211667"
       x="34.44875"
       y="2.4122562"
       id="tspan1079">fire</tspan></text>
  <path
     d="m 31.353132,7.968504 v -6.35 H 33.3375"
     fill="none"
     stroke="#d94a1e"
     stroke-width="0.4"
     id="path1083" />
  <path
     d="m 18.653131,7.968504 v -6.35 h -1.984382"
     fill="none"
     stroke="#d94a1e"
     stroke-width="0.4"
     id="path1085" />
  <g
     transform="translate(-46.467451,-48.117464)"
     id="e"
     stroke-width="1.33333">
    <g
       stroke-width="1.33333"
       transform="matrix(0.6,0,0,0.6,25.036202,46.160968)"
       id="g1091">
      <path
         d="m 146.38281,43 v 6.365234 h 1 V 43 Z"
         fill="#ececec"
         fill-rule="evenodd"
         id="path1087" />
      <path
         d="m 149.3021,44.134573 -2.41063,6.555526 -2.41063,-6.555527 c 1.42323,1.047299 3.37047,1.041265 4.82126,1e-6 z"
         fill="#ececec"
         fill-rule="evenodd"
         stroke="#ececec"
         stroke-linejoin="round"
         stroke-width="0.5"
         id="path1089" />
    </g>
  </g>
  <use
     height="100%"
     stroke-width="1.33333"
     transform="rotate(180,66.703639,19.459899)"
     width="100%"
     xlink:href="#e"
     id="use1094"
     x="0"
     y="0" />
  <use
     height="100%"
     stroke-width="1.33333"
     transform="rotate(90,60.353639,19.856775)"
     width="100%"
     xlink:href="#e"
     id="use1096"
     x="0"
     y="0" />
  <use
     height="100%"
     stroke-width="1.33333"
     transform="rotate(-90,73.053643,19.856774)"
     width="100%"
     xlink:href="#e"
     id="use1098"
     x="0"
     y="0" />
  <path
     d="m 55.171309,34.162255 v 6.260542 h 7.53494"
     fill="none"
     stroke="#d9ca1e"
     stroke-width="0.4"
     id="path1100" />
  <path
     d="m 80.571329,34.162255 v 6.260542 h -7.54633"
     fill="none"
     stroke="#d9ca1e"
     stroke-width="0.4"
     id="path1102" />
  <text
     style="font-size:3.17499999999999982px;font-family:sans-serif;letter-spacing:0;word-spacing:0;fill:#000000;stroke-width:0.211667;fill-opacity:1;"
     x="63.372097"
     y="41.306"
     id="text1106"><tspan
       style="fill:#000000;fill-opacity:1;"
       fill="#ffffff"
       font-family="sans-serif"
       font-size="3.175px"
       stroke-width="0.211667"
       x="63.372097"
       y="41.306"
       id="tspan1104">move</tspan></text>
  <text
     style="font-size:3.17499999999999982px;font-family:sans-serif;letter-spacing:0;word-spacing:0;fill:#000000;stroke-width:0.211667;fill-opacity:1;"
     x="7.7115154"
     y="2.4122562"
     id="text1110"><tspan
       style="fill:#000000;fill-opacity:1;"
       fill="#ffffff"
       font-family="sans-serif"
       font-size="3.175px"
       stroke-width="0.211667"
       x="7.7115154"
       y="2.4122562"
       id="tspan1108">jump</tspan></text>
  <path
     d="M 5.953125,20.668504 V 40.512248 H 7.937507"
     fill="none"
     stroke="#d94a1e"
     stroke-width="0.4"
     id="path1112" />
  <path
     d="m 36.909842,34.162254 v 6.350001 h 1.984382"
     fill="none"
     stroke="#d94a1e"
     stroke-width="0.4"
     id="path1114" />
  <text
     style="font-size:3.17499999999999982px;font-family:sans-serif;letter-spacing:0;word-spacing:0;fill:#000000;stroke-width:0.211667;fill-opacity:1;"
     x="40.099194"
     y="41.306007"
     id="text1118"><tspan
       style="fill:#000000;fill-opacity:1;"
       fill="#ffffff"
       font-family="sans-serif"
       font-size="3.175px"
       stroke-width="0.211667"
       x="40.099194"
       y="41.306007"
       id="tspan1116">dig</tspan></text>
  <path
     d="m 67.876709,7.968504 v -6.35 h 1.98437"
     fill="none"
     stroke="#1ed9ce"
     stroke-width="0.4"
     id="path1120" />
  <text
     style="font-size:3.17499999999999982px;font-family:sans-serif;letter-spacing:0;word-spacing:0;fill:#000000;stroke-width:0.211667;fill-opacity:1;"
     x="70.941963"
     y="2.4122562"
     id="text1124"><tspan
       style="fill:#000000;fill-opacity:1;"
       fill="#ffffff"
       font-family="sans-serif"
       font-size="3.175px"
       stroke-width="0.211667"
       x="70.941963"
       y="2.4122562"
       id="tspan1122">aim</tspan></text>
  <text
     style="font-size:3.17499999999999982px;font-family:sans-serif;letter-spacing:0;word-spacing:0;fill:#000000;stroke-width:0.211667;fill-opacity:1;"
     x="8.7312489"
     y="41.147255"
     id="text1130"><tspan
       style="fill:#000000;fill-opacity:1;"
       fill="#ffffff"
       font-family="sans-serif"
       font-size="3.175px"
       stroke-width="0.211667"
       x="8.7312489"
       y="41.147255"
       id="tspan1126">show/change</tspan><tspan
       style="fill:#000000;fill-opacity:1;"
       fill="#ffffff"
       font-family="sans-serif"
       font-size="3.175px"
       stroke-width="0.211667"
       x="8.7312489"
       y="45.116005"
       id="tspan1128">weapon</tspan></text>
  <g
     id="f"
     stroke-width="1.33333"
     transform="matrix(0.31766718,0,0,0.31766718,6.681953,9.807633)">
    <g
       stroke-width="1.33333"
       transform="matrix(0.50367172,0,0,0.50367172,7.1174,100.75596)"
       id="g1136">
      <rect
         fill="#d9ca1e"
         height="21.166666"
         rx="3.1750031"
         width="19.84375"
         x="18.520834"
         y="32.416664"
         id="rect1132" />
      <rect
         fill="#37474f"
         height="18.272789"
         rx="1.814432"
         ry="1.927834"
         transform="matrix(1,0,0,0.94117638,2.645832,20.58334)"
         width="17.197918"
         x="17.197916"
         y="13.978506"
         id="rect1134" />
    </g>
    <path
       d="m 149.3021,44.134573 -2.41063,6.555526 -2.41063,-6.555527 c 1.42323,1.047299 3.37047,1.041265 4.82126,1e-6 z"
       fill="#ececec"
       fill-rule="evenodd"
       stroke="#ececec"
       stroke-linejoin="round"
       stroke-width="0.5"
       transform="matrix(0,0.81138107,-0.81138107,0,59.765002,2.680624)"
       id="path1138" />
  </g>
  <use
     height="100%"
     stroke-width="1.33333"
     transform="matrix(-1,0,0,1,30.956238,0)"
     width="100%"
     xlink:href="#f"
     id="use1141"
     x="0"
     y="0" />
  <text
     style="font-size:3.17499999999999982px;font-family:sans-serif;letter-spacing:0;word-spacing:0;fill:#000000;stroke-width:0.211667;fill-opacity:1;"
     x="8.7312489"
     y="49.561005"
     id="text1145"><tspan
       style="fill:#000000;fill-opacity:1;"
       fill="#ffffff"
       font-family="sans-serif"
       font-size="3.175px"
       stroke-width="0.211667"
       x="8.7312489"
       y="49.561005"
       id="tspan1143">+</tspan></text>
  <path
     d="M 67.876709,21.621006 V 20.033505"
     fill="none"
     stroke="#1ed9ce"
     stroke-width="0.4"
     id="path1147" />
  <g
     id="g"
     stroke-width="1.33333"
     transform="matrix(0.3375,0,0,0.3375,-6.250781,46.240382)">
    <rect
       fill="#d94a1e"
       height="21.166666"
       rx="3.1750031"
       width="19.84375"
       x="18.520834"
       y="32.416664"
       id="rect1149" />
    <rect
       fill="#37474f"
       height="18.272789"
       rx="1.814432"
       ry="1.927834"
       transform="matrix(1,0,0,0.94117638,2.645832,20.58334)"
       width="17.197918"
       x="17.197916"
       y="13.97851"
       id="rect1151" />
  </g>
  <path
     style="stroke-width:0.675"
     d="m 3.1126865,58.877628 1.0330794,2.678906 H 3.7627979 L 3.5255449,60.94005 H 2.3168608 l -0.237253,0.616484 H 1.6966398 L 2.7297192,58.877628 Z M 2.4625758,60.557082 H 3.3779622 L 2.9221367,59.376419 Z"
     fill="#ededed"
     id="path1154" />
  <path
     style="stroke-width:0.675"
     d="m 13.279077,60.4095 q -0.07846,0 -0.149451,-0.0299 -0.06912,-0.03172 -0.121428,-0.08219 -0.05231,-0.05231 -0.0822,-0.121433 -0.02989,-0.07099 -0.02989,-0.149452 v -0.765936 q 0,-0.07846 0.02989,-0.147582 0.02989,-0.07099 0.0822,-0.121426 0.05231,-0.05231 0.121428,-0.0822 0.07099,-0.03179 0.149451,-0.03179 h 1.300222 q 0.07846,0 0.147584,0.03179 0.07099,0.0299 0.123297,0.0822 0.05231,0.05042 0.0822,0.121426 0.02989,0.06912 0.02989,0.147582 v 0.345607 H 14.579302 V 59.260589 H 13.27908 v 0.765936 h 1.300222 q 0.07846,0 0.147583,0.0299 0.07099,0.0299 0.123297,0.0822 0.05231,0.05231 0.0822,0.123296 0.02989,0.06912 0.02989,0.147582 v 0.764066 q 0,0.07846 -0.02989,0.149452 -0.02989,0.06912 -0.0822,0.121432 -0.05231,0.05231 -0.123297,0.08219 -0.06912,0.0299 -0.147583,0.0299 h -1.337583 q -0.07846,0 -0.149451,-0.0299 -0.06912,-0.0299 -0.121429,-0.08219 -0.05231,-0.05231 -0.0822,-0.121432 -0.02989,-0.07099 -0.02989,-0.149452 v -0.343737 h 0.382968 v 0.343737 h 1.337585 V 60.4095 Z"
     fill="#ededed"
     id="path1156" />
  <g
     transform="translate(-46.467451,-48.117464)"
     style="font-size:3.17499999999999982px;font-family:sans-serif;letter-spacing:0;word-spacing:0;fill:#000000;stroke-width:0.211667;fill-opacity:1"
     id="g1166">
    <text
       style="fill:#000000;fill-opacity:1"
       x="54.066986"
       y="110.14027"
       id="text1160"><tspan
         style="fill:#000000;fill-opacity:1"
         fill="#ffffff"
         font-family="sans-serif"
         font-size="3.175px"
         stroke-width="0.211667"
         x="54.066986"
         y="110.14027"
         id="tspan1158">+</tspan></text>
    <text
       style="fill:#000000;fill-opacity:1"
       x="66.557121"
       y="109.8751"
       id="text1164"><tspan
         style="fill:#000000;fill-opacity:1"
         fill="#ffffff"
         font-family="sans-serif"
         font-size="3.175px"
         stroke-width="0.211667"
         x="66.557121"
         y="109.8751"
         id="tspan1162">throw ninja rope</tspan></text>
  </g>
</svg>
