<?xml version="1.0" encoding="UTF-8" standalone="no"?>
<svg
   xmlns:dc="http://purl.org/dc/elements/1.1/"
   xmlns:cc="http://creativecommons.org/ns#"
   xmlns:rdf="http://www.w3.org/1999/02/22-rdf-syntax-ns#"
   xmlns:svg="http://www.w3.org/2000/svg"
   xmlns="http://www.w3.org/2000/svg"
   xmlns:sodipodi="http://sodipodi.sourceforge.net/DTD/sodipodi-0.dtd"
   xmlns:inkscape="http://www.inkscape.org/namespaces/inkscape"
   inkscape:version="1.0 (4035a4f, 2020-05-01)"
   height="45.742592"
   width="55.899258"
   sodipodi:docname="wl-faq.svg"
   id="svg944"
   version="1.1"
   viewBox="0 0 55.899258 45.742593">
  <metadata
     id="metadata950">
    <rdf:RDF>
      <cc:Work
         rdf:about="">
        <dc:format>image/svg+xml</dc:format>
        <dc:type
           rdf:resource="http://purl.org/dc/dcmitype/StillImage" />
        <dc:title></dc:title>
      </cc:Work>
    </rdf:RDF>
  </metadata>
  <defs
     id="defs948" />
  <sodipodi:namedview
     inkscape:current-layer="svg944"
     inkscape:window-maximized="1"
     inkscape:window-y="23"
     inkscape:window-x="0"
     inkscape:cy="23.847074"
     inkscape:cx="26.393407"
     inkscape:zoom="9.0072989"
     fit-margin-bottom="0"
     fit-margin-right="0"
     fit-margin-left="0"
     fit-margin-top="0"
     showgrid="false"
     id="namedview946"
     inkscape:window-height="855"
     inkscape:window-width="1440"
     inkscape:pageshadow="2"
     inkscape:pageopacity="0"
     guidetolerance="10"
     gridtolerance="10"
     objecttolerance="10"
     borderopacity="1"
     bordercolor="#666666"
     pagecolor="#ffffff" />
  <filter
     y="-0.059333999"
     x="-0.025838999"
     width="1.051677"
     height="1.118669"
     color-interpolation-filters="sRGB"
     id="a">
    <feGaussianBlur
       id="feGaussianBlur833"
       stdDeviation="1.176354" />
  </filter>
  <filter
     y="-0.31828499"
     x="-0.078547001"
     width="1.157095"
     height="1.636571"
     color-interpolation-filters="sRGB"
     id="b">
    <feGaussianBlur
       id="feGaussianBlur836"
       stdDeviation="1.5809627" />
  </filter>
  <linearGradient
     gradientTransform="matrix(0.26458,0,0,0.26458,0.01460561,0.10321787)"
     y2="4.55335"
     y1="49.631409"
     x2="135.67612"
     x1="135.67612"
     gradientUnits="userSpaceOnUse"
     id="c">
    <stop
       id="stop839"
       stop-color="#1f386f"
       offset="0" />
    <stop
       id="stop841"
       offset="1" />
  </linearGradient>
  <g
     transform="translate(0.01460561,0.00321787)"
     id="g932"
     stroke-width="0.529"
     stroke-opacity="0.6">
    <path
       id="path844"
       fill="#b10000"
       d="m 6,16.53 2.17,6 h 1.11 l -2.04,-6 z" />
    <path
       id="path846"
       fill="#ff0f0f"
       d="m 6.19,27.06 2.16,4.97 3.16,-9.5 -1.8,-6 z" />
    <path
       id="path848"
       fill="#b10000"
       d="m 1.14,28.67 2.65,4.8 h 9.5 l -1.6,-4.8 z" />
    <path
       id="path850"
       fill="#ff0f0f"
       d="m 11.69,28.67 1.6,4.8 1.02,-4.14 -1.5,-5.26 z" />
    <path
       id="path852"
       fill="#b10000"
       d="m 9.71,16.53 1.8,6 h 1.12 l -1.68,-6 z" />
    <path
       id="path854"
       fill="#ff0f0f"
       d="m 10.95,16.53 1.68,6 0.3,-0.98 -1.64,-6.1 z" />
    <path
       id="path856"
       fill="#b10000"
       d="m 15.89,16.53 1.2,6 h 1.11 l -1.07,-6 z" />
    <path
       id="path858"
       fill="#ff0f0f"
       d="m 17.97,27.06 0.98,4.97 1.48,-9.5 -0.82,-6 z" />
    <path
       id="path860"
       fill="#b10000"
       d="m 13.19,28.67 1.46,4.8 h 5.44 l -0.87,-4.8 z" />
    <path
       id="path862"
       fill="#ff0f0f"
       d="m 19.22,28.67 0.87,4.8 0.19,-1.44 -0.84,-4.97 z" />
    <path
       id="path864"
       fill="#b10000"
       d="m 19.61,16.53 0.82,6 h 1.11 l -0.7,-6 z" />
    <path
       id="path866"
       fill="#ff0f0f"
       d="m 20.84,16.53 0.7,6 0.13,-0.98 -0.68,-6.1 z" />
    <path
       id="path868"
       fill="#b10000"
       d="m 22.06,16.53 0.58,6 h 1.11 l -0.46,-6 z" />
    <path
       id="path870"
       fill="#ff0f0f"
       d="m 25.32,27.06 0.26,4.97 0.23,-5.16 -0.23,-5.53 z" />
    <path
       id="path872"
       fill-opacity="0.3"
       d="m 26.92,21.35 0.1,5.52 -0.03,1.2 -0.1,-5.4 z" />
    <path
       id="path874"
       fill="#b10000"
       d="m 26.89,22.68 0.1,5.4 h 1.24 l 0.03,-5.4 z" />
    <path
       id="path876"
       fill-opacity="0.3"
       d="m 28.26,22.68 -0.03,5.4 v -3.47 l 0.03,-5.78 z" />
    <path
       id="path878"
       fill="#ff0f0f"
       d="m 25.63,20.06 0.23,5.66 0.14,-3.19 -0.2,-6 z" />
    <path
       id="path880"
       fill="#b10000"
       d="m 25.79,16.53 0.21,6 h 2.23 l 0.03,-6 z" />
    <path
       id="path882"
       fill="#ff0f0f"
       d="m 28.26,16.53 -0.03,6 v 1.02 l 0.03,-5.9 z" />
    <path
       id="path884"
       fill="#b10000"
       d="m 28.26,17.65 -0.03,5.9 h 1.14 l 0.16,-5.9 z" />
    <path
       id="path886"
       fill="#ff0f0f"
       d="m 29.53,17.65 -0.16,5.9 0.02,1.06 0.16,-5.78 z" />
    <path
       id="path888"
       fill="#b10000"
       d="m 29.55,18.83 -0.16,5.78 h 1.16 l 0.29,-5.78 z" />
    <path
       id="path890"
       fill="#ff0f0f"
       d="m 29.67,24.07 -0.17,5.26 0.03,1.32 0.17,-5.12 z" />
    <path
       id="path892"
       fill="#ff0f0f"
       d="m 31.9,15.45 -0.39,6.1 0.07,0.98 0.4,-6 z" />
    <path
       id="path894"
       fill="#b10000"
       d="m 31.97,16.53 -0.4,6 h 1.12 l 0.52,-6 z" />
    <path
       id="path896"
       fill="#ff0f0f"
       d="m 33.21,16.53 -0.52,6 0.85,9.5 0.6,-4.97 z m -0.53,10.53 -0.47,4.97 0.1,1.44 0.47,-4.8 z m 5.48,-10.53 -1.01,6 0.57,3.19 1.07,-5.66 z" />
    <path
       id="path898"
       fill="#b10000"
       d="m 36.33,21.35 -0.83,5.52 h 1.21 l 0.96,-5.53 z" />
    <path
       id="path900"
       fill="#ff0f0f"
       d="m 37.67,21.35 -0.96,5.52 0.19,1.2 0.98,-5.4 z" />
    <path
       id="path902"
       fill="#b10000"
       d="m 37.88,22.68 -0.98,5.4 h 1.24 l 1.11,-5.4 z" />
    <path
       id="path904"
       fill="#ff0f0f"
       d="m 39.25,22.68 -1.11,5.4 0.96,5.4 1.22,-4.81 z" />
    <path
       id="path906"
       fill="#b10000"
       d="m 44.34,16.53 -1.62,6 h 3.35 l 1.98,-6 z" />
    <path
       id="path908"
       fill="#ff0f0f"
       d="m 42.82,15.45 -1.47,6.1 0.26,0.98 1.5,-6 z" />
    <path
       id="path910"
       fill="#ff0f0f"
       d="m 41.87,16.53 -1.38,6 2.33,9.5 1.63,-4.97 z" />
    <path
       id="path912"
       fill="#b10000"
       d="m 41.42,20.06 -1.33,5.66 -0.71,-3.19 1.25,-6 z" />
    <path
       id="path914"
       fill="#b10000"
       d="m 44.45,27.06 -1.63,4.97 h 1.32 l 1.78,-4.97 z" />
    <path
       id="path916"
       fill="#ff0f0f"
       d="m 45.92,27.06 -1.78,4.97 0.39,1.44 1.81,-4.8 z" />
    <path
       id="path918"
       fill="#b10000"
       d="m 53.27,27.06 -2.5,4.97 h 1.33 l 2.64,-4.97 z" />
    <path
       id="path920"
       fill-opacity="0.3"
       d="m 42.82,15.45 -1.47,6.1 z" />
    <path
       id="path922"
       fill="#b10000"
       d="m 35.69,16.53 -0.77,6 h 2.23 l 1,-6 z" />
    <path
       id="path924"
       fill-opacity="0.3"
       d="m 35.69,16.53 -0.77,6 z" />
    <path
       id="path926"
       fill="#ff0f0f"
       d="m 48.05,16.53 -1.98,6 3.37,9.5 2.36,-4.97 z" />
    <path
       id="path928"
       fill-opacity="0.3"
       d="m 44.34,16.53 -1.62,6 z" />
    <path
       id="path930"
       fill="#b10000"
       d="m 20.73,28.67 0.71,4.8 h 9.5 l 0.34,-4.8 z m 12.06,0 -0.48,4.8 h 4.07 l 0.92,-4.8 z m 7.53,0 -1.22,4.8 h 2.71 l 1.52,-4.8 z m 6.02,0 -1.81,4.8 h 6.79 l 2.56,-4.8 z m -20.76,-7.32 0.23,5.52 h 1.21 l -0.1,-5.53 z" />
  </g>
  <path
     id="path934"
     filter="url(#b)"
     fill="#ff0f0f"
     d="m 8.5746056,21.563218 -0.39,0.97 h 1.11 l -3.58,9.5 h -1.34 l -0.58,1.44 h 9.5000004 l 1.02,-4.14 h -1.27 l -0.35,1.32 h -1.3 l -0.39,1.38 H 8.3546056 l 3.1600004,-9.5 h 1.12 l 0.3,-0.98 h -1.09 z m 8.7500004,0 -0.22,0.97 h 1.11 l -1.9,9.5 h -1.32 l -0.32,1.44 h 5.43 l 0.19,-1.44 h -1.33 l 1.48,-9.5 h 1.12 l 0.13,-0.98 z m 5.46,0 -0.1,0.97 h 1.09 l -0.84,9.5 h -1.32 l -0.16,1.44 h 9.5 l -0.18,-4.14 h -1.27 l 0.03,1.32 h -1.3 v 1.38 h -2.65 l 0.23,-5.16 h 1.21 l -0.02,1.2 h 1.23 v -3.46 h -1.16 l -0.02,1.1 h -1.18 l 0.15,-3.18 h 2.22 v 1.02 h 1.14 l 0.03,1.06 h 1.16 l -0.14,-3.06 z m 8.74,0 0.07,0.97 h 1.11 l 0.85,9.5 h -1.33 l 0.1,1.44 h 4.07 l -0.88,-6.6 h 1.21 l 0.19,1.2 h 1.24 l 0.96,5.4 h 2.71 l -1.2,-5.4 h -1.23 l -0.48,-2.36 h 1.19 l -0.7,-3.18 h -1.13 l -0.2,-0.98 h -6.56 m 9.84,0 0.26,0.98 h -1.11 l 2.32,9.5 h 1.32 l 0.39,1.44 h 6.79 l -0.55,-1.44 h 1.33 l -3.8,-9.5 h -1.12 l -0.37,-0.98 z m -6.43,0.98 h 2.23 l 0.57,3.18 h -2.37 z m 7.8,0 h 3.35 l 3.38,9.5 h -3.98 l -2.74,-9.5" />
  <path
     style="fill:#ffffff;fill-opacity:1;stroke:#ff0e0e;stroke-width:0.025;stroke-linejoin:miter;stroke-miterlimit:4;stroke-dasharray:none;stroke-opacity:1"
     id="path936"
     fill="#fff"
     d="m 6.4546056,15.443218 -0.44,1.09 h 1.24 l -3.98,10.53 h -1.47 l -0.64,1.6 H 11.704606 l 1.13,-4.59 h -1.4 l -0.4,1.46 H 9.6046056 l -0.45,1.53 h -2.94 l 3.51,-10.53 h 1.2400004 l 0.34,-1.09 h -1.21 z m 9.7000004,0 -0.24,1.09 h 1.24 l -2.11,10.53 h -1.47 l -0.36,1.6 h 6.03 l 0.21,-1.6 h -1.47 l 1.64,-10.53 h 1.24 l 0.14,-1.09 z m 6.06,0 -0.12,1.09 h 1.24 l -0.94,10.53 h -1.47 l -0.18,1.6 h 10.55 l -0.2,-4.59 h -1.4 l 0.02,1.46 h -1.43 v 1.53 h -2.95 l 0.26,-5.72 h 1.34 l -0.03,1.34 h 1.38 v -3.85 h -1.3 l -0.02,1.23 h -1.31 l 0.15,-3.53 h 2.48 v 1.13 h 1.26 l 0.02,1.17 h 1.3 l -0.16,-3.39 z m 9.7,0 0.08,1.09 h 1.23 l 0.94,10.53 h -1.47 l 0.1,1.6 h 4.53 l -0.98,-7.32 h 1.34 l 0.21,1.34 h 1.37 l 1.07,5.99 h 3.01 l -1.33,-6 h -1.37 l -0.53,-2.61 h 1.32 l -0.79,-3.53 h -1.23 l -0.22,-1.09 z m 10.92,0 0.29,1.09 h -1.25 l 2.58,10.53 h 1.47 l 0.43,1.6 h 7.53 l -0.6,-1.6 h 1.46 l -4.21,-10.53 h -1.24 l -0.4,-1.09 z m -7.13,1.09 h 2.47 l 0.63,3.53 h -2.63 z m 8.65,0 h 3.72 l 3.74,10.53 h -4.41 z" />
  <path
     id="path938"
     transform="matrix(0.26458,0,0,0.26458,-18.225394,-201.02678)"
     filter="url(#a)"
     fill="#14eaff"
     d="m 204.9,762.62 c -0.7,0 -1.36,0.59 -1.44,1.29 l -4.98,44.7 c -0.09,0.8 0.63,1.6 1.43,1.6 h 3.91 c 0.52,0 0.93,-0.37 1.19,-0.82 0.42,0.27 0.8,0.51 1.2,0.64 l 0.06,0.02 c 0.52,0.14 1.04,0.16 1.73,0.16 h 10.15 a 6.5,6.5 0 0 0 3.62,-1.27 l 1.52,-1.03 a 5.68,5.68 0 0 0 2.46,-3.51 l 3.83,-18.18 a 4.82,4.82 0 0 0 -0.95,-4 0.87,0.87 0 0 0 -0.21,-0.38 l -1.16,-1.22 -0.04,-0.04 a 5.14,5.14 0 0 0 -3.7,-1.72 h -11.44 c -0.83,0 -1.6,0.37 -2.36,0.85 l 2.02,-15.46 a 1.5,1.5 0 0 0 -1.43,-1.63 z m -83.04,16.24 c -0.49,0 -0.96,0.26 -1.22,0.67 -0.26,0.41 -0.3,0.95 -0.09,1.39 l 13.25,28.45 c 0.23,0.5 0.76,0.83 1.3,0.84 h 5.92 c 0.7,0 1.35,-0.58 1.43,-1.27 l 2.24,-18.33 6.48,18.63 c 0.2,0.56 0.76,0.96 1.36,0.97 h 5.92 c 0.64,0 1.25,-0.49 1.4,-1.11 l 6.82,-28.46 c 0.2,-0.84 -0.53,-1.78 -1.4,-1.78 h -4.93 c -0.66,0 -1.28,0.52 -1.41,1.17 l -4.01,20.2 -6.9,-20.39 c -0.18,-0.56 -0.76,-0.98 -1.36,-0.98 h -6.2 c -0.7,0 -1.35,0.59 -1.43,1.28 l -2.25,20.05 -8.67,-20.45 a 1.48,1.48 0 0 0 -1.33,-0.88 z m 53.81,0 c -1.4,0 -2.7,0.62 -3.86,1.63 l -1.44,1.25 a 5.43,5.43 0 0 0 -1.9,4.2 l 0.25,18.18 a 4.81,4.81 0 0 0 1.91,3.73 l 1.32,1.03 a 5.7,5.7 0 0 0 3.5,1.33 h 14.48 a 5.75,5.75 0 0 0 1.83,-0.2 7.94,7.94 0 0 0 1.77,-1.1 l 1.4,-1.03 c 0.7,-0.52 0.74,-1.7 0.07,-2.27 L 191.9,803 a 1.49,1.49 0 0 0 -1.8,-0.05 c -0.31,0.24 -0.6,0.43 -0.8,0.57 l -0.25,0.15 -0.15,0.02 -0.7,0.02 h -10.69 c -0.5,0 -0.78,-0.02 -0.85,-0.03 -0.05,-0.03 -0.13,-0.06 -0.32,-0.2 l -0.06,-0.05 c 0,-0.13 -0.02,-0.18 -0.02,-0.44 l 0.02,-3.68 h 17.99 c 0.71,0 1.37,-0.6 1.43,-1.32 l 1,-11.95 a 4.97,4.97 0 0 0 -1.7,-4.32 l -1.38,-1.22 a 1.4,1.4 0 0 0 -0.06,-0.05 c -1.2,-0.96 -2.42,-1.59 -3.72,-1.59 z m 2.18,7.27 h 9.57 a 7.23,7.23 0 0 1 0.94,0.07 l 0.02,0.01 c 0.07,0.04 0.17,0.1 0.28,0.2 l 0.1,0.1 -0.01,0.6 -0.37,5.65 h -12.06 l 0.03,-5.55 v -0.01 c 0,-0.37 0.02,-0.49 0.03,-0.62 a 2.52,2.52 0 0 1 0.46,-0.35 c 0.02,-0.02 0.03,-0.03 0.05,-0.03 l 0.2,-0.03 c 0.18,-0.01 0.45,-0.04 0.76,-0.04 z m 34.2,0 h 8.42 a 9.02,9.02 0 0 1 0.89,0.05 l 0.22,0.18 0.02,0.01 -0.09,0.56 -3.02,15.78 v 0.03 c -0.04,0.2 -0.1,0.39 -0.13,0.5 l -0.2,0.18 a 0.87,0.87 0 0 0 -0.01,0 c -0.26,0.17 -0.4,0.23 -0.47,0.26 -0.05,0 -0.36,0.03 -0.89,0.03 h -7.82 c -0.3,0 -0.54,-0.01 -0.72,-0.03 -0.15,0 -0.23,-0.02 -0.22,-0.02 0.07,0.02 -0.04,-0.02 -0.2,-0.1 l -0.68,-0.41 -0.43,-0.3 v -0.21 l 1.92,-14.65 c 0.03,-0.24 0.08,-0.43 0.11,-0.55 l 0.09,-0.07 a 21.4,21.4 0 0 1 1.72,-1 c 0.21,-0.12 0.37,-0.18 0.33,-0.17 -0.06,0.02 0.48,-0.07 1.15,-0.07 z m -7.26,23.15 h 0.01 z m 0.02,0.01 0.02,0.01 h -0.01 z" />
  <path
     id="path940"
     fill="#fefefe"
     d="m 35.984606,0.75321787 a 0.4,0.4 0 0 0 -0.38,0.34000003 l -1.31,11.8100001 a 0.4,0.4 0 0 0 0.38,0.43 h 1.03 c 0.14,0 0.25,-0.1 0.31,-0.22 0.12,0.07 0.21,0.14 0.32,0.17 h 0.02 c 0.14,0.04 0.27,0.05 0.46,0.05 h 2.68 c 0.33,0 0.65,-0.13 0.96,-0.34 l 0.4,-0.27 c 0.34,-0.23 0.57,-0.55 0.65,-0.93 l 1.01,-4.8100001 c 0.09,-0.38 -0.01,-0.76 -0.25,-1.06 a 0.23,0.23 0 0 0 -0.05,-0.1 l -0.31,-0.32 a 1.36,1.36 0 0 0 -0.99,-0.46 h -3.02 c -0.23,0 -0.43,0.1 -0.63,0.23 l 0.54,-4.1 a 0.4,0.4 0 0 0 -0.38,-0.42000003 z m -21.97,4.30000003 c -0.12,0 -0.25,0.06 -0.32,0.17 -0.07,0.11 -0.08,0.25 -0.02,0.37 l 3.5,7.5300001 c 0.06,0.13 0.2,0.22 0.35,0.22 h 1.56 a 0.4,0.4 0 0 0 0.38,-0.34 l 0.6,-4.8500001 1.7,4.9300001 c 0.06,0.15 0.21,0.26 0.37,0.26 h 1.56 a 0.4,0.4 0 0 0 0.37,-0.3 l 1.81,-7.5300001 c 0.05,-0.22 -0.14,-0.47 -0.37,-0.47 h -1.3 a 0.4,0.4 0 0 0 -0.38,0.31 l -1.06,5.3500001 -1.82,-5.4000001 a 0.4,0.4 0 0 0 -0.36,-0.26 h -1.64 a 0.4,0.4 0 0 0 -0.38,0.34 l -0.6,5.3000001 -2.3,-5.4000001 a 0.4,0.4 0 0 0 -0.34,-0.24 z m 14.24,0 c -0.37,0 -0.72,0.16 -1.02,0.42 l -0.38,0.34 c -0.33,0.28 -0.5,0.68 -0.5,1.1 l 0.06,4.8200001 c 0,0.39 0.2,0.74 0.5,0.98 l 0.36,0.28 c 0.28,0.21 0.6,0.35 0.92,0.35 h 3.84 a 1.52,1.52 0 0 0 0.48,-0.06 c 0.15,-0.05 0.28,-0.15 0.47,-0.29 l 0.37,-0.27 c 0.18,-0.14 0.2,-0.45 0.02,-0.6 l -0.82,-0.69 a 0.4,0.4 0 0 0 -0.48,-0.01 l -0.21,0.15 -0.07,0.04 h -3.28 l -0.08,-0.05 -0.02,-0.02 v -1.09 h 4.76 a 0.4,0.4 0 0 0 0.38,-0.35 l 0.27,-3.1600001 c 0.03,-0.44 -0.12,-0.86 -0.45,-1.14 l -0.37,-0.32 -0.02,-0.02 a 1.62,1.62 0 0 0 -0.98,-0.42 z m 0.58,1.92 h 2.53 a 1.91,1.91 0 0 1 0.25,0.01 l 0.08,0.06 0.03,0.03 v 0.15 l -0.1,1.5 h -3.2 l 0.01,-1.47 v -0.17 c 0.02,0 0.03,-0.02 0.05,-0.03 a 0.67,0.67 0 0 1 0.08,-0.06 h 0.01 l 0.06,-0.01 z m 9.04,0 h 2.24 a 2.39,2.39 0 0 1 0.23,0.01 l 0.06,0.05 c 0,0.03 0,0.08 -0.02,0.15 l -0.8,4.1700001 v 0.01 l -0.03,0.14 -0.06,0.04 -0.12,0.07 h -2.56 a 3.35,3.35 0 0 1 -0.24,-0.14 l -0.1,-0.08 v -0.06 l 0.5,-3.8700001 a 1,1 0 0 1 0.04,-0.16 c 0.01,0 0.02,0 0.03,-0.02 a 3.02,3.02 0 0 1 0.45,-0.26 l 0.09,-0.04 c -0.02,0 0.13,-0.02 0.3,-0.02 z" />
  <path
     style="fill:url(#c);stroke-width:0.26458"
     id="path942"
     fill="url(#c)"
     d="M 35.986902,1.2594325 A 0.105832,0.105832 0 0 0 35.88107,1.3520355 L 34.563462,13.178761 a 0.105832,0.105832 0 0 0 0.105832,0.119061 h 1.034508 a 0.105832,0.105832 0 0 0 0.105832,-0.0926 l 0.03439,-0.275163 c 0.0635,0.05556 0.140228,0.105832 0.240768,0.156102 0.156102,0.09525 0.256643,0.156103 0.336017,0.179915 a 0.105832,0.105832 0 0 0 0.0053,0 c 0.08731,0.02646 0.206373,0.03175 0.383641,0.03175 h 2.685487 c 0.256643,0 0.523869,-0.09789 0.801678,-0.288392 l 0.402161,-0.272517 a 1.2117764,1.2117764 0 0 0 0.539743,-0.756699 L 42.249511,7.1701497 A 0.9815918,0.9815918 0 0 0 42.011389,6.2573487 L 41.693893,5.9239779 a 1.071549,1.071549 0 0 0 -0.780511,-0.370412 h -3.024149 c -0.216956,0 -0.449786,0.1243526 -0.722304,0.343954 -0.111123,0.089957 -0.190497,0.1666854 -0.261934,0.238122 L 37.526758,1.3784935 A 0.105832,0.105832 0 0 0 37.420926,1.2594325 Z M 14.016179,5.5535659 a 0.105832,0.105832 0 0 0 -0.09525,0.1508106 l 3.50304,7.5325925 a 0.105832,0.105832 0 0 0 0.09525,0.06085 h 1.566314 a 0.105832,0.105832 0 0 0 0.105832,-0.0926 l 0.732887,-6.0112571 v -0.013229 c 0.0079,0.013229 0.0079,0.021166 0.01323,0.034395 l 2.090182,6.0112581 a 0.105832,0.105832 0 0 0 0.103186,0.07144 h 1.563668 a 0.105832,0.105832 0 0 0 0.105832,-0.07937 l 1.804435,-7.5325925 a 0.105832,0.105832 0 0 0 -0.105832,-0.13229 H 24.19722 a 0.105832,0.105832 0 0 0 -0.105832,0.087311 l -1.259401,6.3552115 v -0.0026 L 20.678304,5.6276483 a 0.105832,0.105832 0 0 0 -0.100541,-0.071437 h -1.640396 a 0.105832,0.105832 0 0 0 -0.105832,0.092603 l -0.71172,6.3472747 c -0.0026,-0.0079 0,-0.01058 -0.0053,-0.01587 l 0.0026,0.0053 -2.698716,-6.3657955 a 0.105832,0.105832 0 0 0 -0.10054,-0.063499 z m 14.239696,0 c -0.288392,0 -0.571493,0.1269984 -0.841365,0.3598288 l -0.380995,0.3333708 a 1.1403398,1.1403398 0 0 0 -0.407453,0.899572 l 0.06614,4.8100645 a 0.978946,0.978946 0 0 0 0.39687,0.775219 l 0.349246,0.272518 c 0.246059,0.190497 0.500056,0.291038 0.756698,0.291038 h 3.83641 c 0.174623,0 0.291038,-0.0026 0.375704,-0.0291 a 0.105832,0.105832 0 0 0 0.0079,-0.0026 c 0.09525,-0.03969 0.216956,-0.121707 0.402162,-0.256643 l 0.370412,-0.272517 a 0.105832,0.105832 0 0 0 0.0053,-0.169331 L 32.37274,11.874382 a 0.105832,0.105832 0 0 0 -0.13229,-0.0053 c -0.179915,0.137582 -0.309559,0.216956 -0.354538,0.238122 a 1.561022,1.561022 0 0 1 -0.31485,0.02117 h -2.831006 c -0.164039,0 -0.272517,-0.0079 -0.301621,-0.01323 a 0.9233842,0.9233842 0 0 1 -0.291038,-0.21431 1.85206,1.85206 0 0 1 -0.01058,-0.238122 l 0.0079,-1.248818 h 5.029666 a 0.105832,0.105832 0 0 0 0.105832,-0.09789 l 0.26458,-3.1617311 c 0.03175,-0.370412 -0.08731,-0.687908 -0.351891,-0.9101552 L 32.822526,5.9160405 a 0.105832,0.105832 0 0 0 -0.0053,-0.00529 c -0.291038,-0.2301846 -0.56091,-0.357183 -0.812261,-0.357183 z m 0.576784,1.375816 h 2.529385 c 0.185206,0 0.312204,0.018521 0.322788,0.021166 a 0.105832,0.105832 0 0 0 0.01852,0.00794 c 0.01588,0.00265 0.08202,0.034395 0.166686,0.105832 0.07937,0.068791 0.105832,0.1243526 0.105832,0.1269984 a 0.105832,0.105832 0 0 0 0.01058,0.026458 l 0.0079,0.071437 c 0,0.044979 0,0.1084778 -0.0053,0.185206 l -0.11377,1.7541654 h -3.725286 l 0.01058,-1.746228 c 0,-0.1508106 0.01058,-0.251351 0.01323,-0.2698716 a 0.52916,0.52916 0 0 1 0.137582,-0.145519 c 0.08996,-0.071437 0.158748,-0.105832 0.177268,-0.1084778 a 0.105832,0.105832 0 0 0 0.01852,-0.00529 c 0.01323,-0.00529 0.140227,-0.026458 0.325433,-0.026458 z m 9.048636,0 h 2.227764 a 2.5743634,2.5743634 0 0 1 0.31485,0.021166 0.105832,0.105832 0 0 0 0.02117,0.00794 c 0.01323,0 0.07144,0.03175 0.145519,0.1031862 0.07144,0.066145 0.08731,0.1164152 0.08731,0.1164152 a 0.105832,0.105832 0 0 0 0.0053,0.029104 v 0.068791 l -0.0291,0.185206 -0.799032,4.1803647 c -0.02646,0.134935 -0.05821,0.224893 -0.06879,0.243413 a 0.105832,0.105832 0 0 0 -0.0079,0.01323 c 0.0079,-0.01587 -0.04233,0.04498 -0.134936,0.105832 -0.0926,0.06085 -0.158748,0.0979 -0.198435,0.111124 -0.0344,0.0053 -0.140227,0.01323 -0.309559,0.01323 h -2.069015 c -0.171977,0 -0.288392,-0.01323 -0.330725,-0.02646 A 2.262159,2.262159 0 0 1 36.43674,11.935238 c -0.07937,-0.05027 -0.140227,-0.0926 -0.18256,-0.126998 -0.03969,-0.03175 -0.06085,-0.06085 -0.05556,-0.05292 0,0 -0.01587,-0.08731 0,-0.222247 l 0.50794,-3.8760961 c 0.02117,-0.1534564 0.05556,-0.251351 0.07144,-0.2725174 0.0026,-0.00529 0.03704,-0.039687 0.0926,-0.079374 0.05821,-0.039687 0.137581,-0.089957 0.238122,-0.1481648 0.203726,-0.1164152 0.343954,-0.185206 0.386286,-0.2010808 0.05292,-0.015875 0.187852,-0.026458 0.383641,-0.026458 z" />
  <text
     id="text954"
     y="44.235123"
     x="11.537912"
     style="font-style:normal;font-weight:normal;font-size:10.0498px;line-height:1.25;font-family:sans-serif;letter-spacing:7px;opacity:0.995;fill:#000000;fill-opacity:1;stroke:none;stroke-width:0.75374"
     xml:space="preserve"><tspan
       dx="0"
       style="font-style:normal;font-variant:normal;font-weight:300;font-stretch:normal;font-size:10.0498px;font-family:Oxanium;-inkscape-font-specification:'Oxanium, Light';font-variant-ligatures:normal;font-variant-caps:normal;font-variant-numeric:normal;font-variant-east-asian:normal;stroke-width:0.75374"
       y="44.235123"
       x="11.537912"
       id="tspan952"
       sodipodi:role="line">FAQ</tspan></text>
</svg>
